# xmcd
#
# Track frame offsets: 
#        150
#        18984
#        39627
#        61216
#        83968
#        102327
#        121686
#        136544
#        159161
#        177204
#        195298
#        214999
#        236879
#        257851
#
# Disc length: 3724 seconds
#
# Revision: 0
# Processed by: cddbd v1.4PL0 Copyright (c) Steve Scherf et al.
# Submitted via: ExactAudioCopy v0.95a3
#
DISCID=b20e8a0e
DTITLE=Johnny Drummer - Its So Nice
DYEAR=1999
DGENRE=Blues
TTITLE0=I wanna get in your head before I get in your bed
TTITLE1=I'm not gonna give you up
TTITLE2=Knockin' at your door
TTITLE3=It's so nice
TTITLE4=I'll find a way
TTITLE5=I got a problem in my home
TTITLE6=Blue Collar Man
TTITLE7=Tag on your toe
TTITLE8=I can't stand the rain
TTITLE9=A woman, a lover, a friend
TTITLE10=I got a love
TTITLE11=Give me a sign
TTITLE12=I'm trapped
TTITLE13=Dragnet
EXTD=
EXTT0=
EXTT1=
EXTT2=
EXTT3=
EXTT4=
EXTT5=
EXTT6=
EXTT7=
EXTT8=
EXTT9=
EXTT10=
EXTT11=
EXTT12=
EXTT13=
PLAYORDER=
